<svg xmlns="http://www.w3.org/2000/svg"
    data-name="Layer 31"
    viewBox="0 0 100 125"
    x="0px"
    y="0px"
    fill="#EB5E55">
    <title>22. child</title>
    <path d="M55.72,29.77A1,1,0,0,0,55.45,31a1,1,0,0,0,.89.54.9.9,0,0,0,.28,0,14.57,14.57,0,0,0,6.3-4,11,11,0,0,0,18.38-4,6.92,6.92,0,0,0,2.16,1.24,8.63,8.63,0,0,0,2.94.48,15.09,15.09,0,0,0,6.23-1.54,1,1,0,0,0-.56-1.88c-2.82.28-4.88-4.19-5-5.09a7.37,7.37,0,0,0-.33-1.52,4.75,4.75,0,0,0-7.19-2.09,11,11,0,0,0-18.48,2A4.77,4.77,0,0,0,55,21.37a7.73,7.73,0,0,0,.8,1.26C56.31,23.36,57.93,28,55.72,29.77ZM81.27,14.42a2.76,2.76,0,0,1,2.13,0,2.73,2.73,0,0,1,1.47,1.46A6.06,6.06,0,0,1,85.09,17,10.58,10.58,0,0,0,89,22.89a8.64,8.64,0,0,1-4.86,0,5.1,5.1,0,0,1-2.3-1.64,11.22,11.22,0,0,0-.07-3.06.76.76,0,0,0,0-.16s0,0,0,0a11.1,11.1,0,0,0-.61-2.2c-.14-.34-.3-.68-.47-1A2.67,2.67,0,0,1,81.27,14.42ZM79.9,19.63c0,.1,0,.2,0,.3a8.81,8.81,0,0,1-.18,1.78,9,9,0,0,1-15.7,4,8.12,8.12,0,0,1-.69-.94,8.74,8.74,0,0,1-.7-1.32l-.07-.15L62.48,23l.2,0a6.13,6.13,0,0,0,.62,0h.38a7.76,7.76,0,0,0,1-.11,12.58,12.58,0,0,0,5.74-2.9,23.25,23.25,0,0,0,2.47-2.37,7.52,7.52,0,0,0,2.38,1.57,7.35,7.35,0,0,0,3.18.57,7.61,7.61,0,0,0,1.22-.14ZM62,18.66a8.22,8.22,0,0,1,.33-1.47,7.93,7.93,0,0,1,.42-1.05,9,9,0,0,1,8.13-5.22,9.15,9.15,0,0,1,7.9,4.7,9.86,9.86,0,0,1,.46.92c.12.3.22.6.31.9,0,.07,0,.14.05.21h0a6.1,6.1,0,0,1-1,.15,5.79,5.79,0,0,1-1,0,5.43,5.43,0,0,1-3.84-2.2,1,1,0,0,0-.78-.45,1,1,0,0,0-.82.35C69,19.29,66.33,20.6,64.48,21a6.33,6.33,0,0,1-1,.12A5.42,5.42,0,0,1,62.44,21L62,20.89A8.75,8.75,0,0,1,62,18.66Zm-5.22,1.9A2.78,2.78,0,0,1,58.34,17a2.74,2.74,0,0,1,2,0,10.8,10.8,0,0,0-.26,4.87.22.22,0,0,0,0,.08,11,11,0,0,0,.62,2.18,10.82,10.82,0,0,0,.93,1.79,9.63,9.63,0,0,1-3,2.56,10.56,10.56,0,0,0-1.33-7A7.68,7.68,0,0,1,56.8,20.56Z"/>
    <path d="M37.12,11.62A11,11,0,0,0,22.88,28.38,10.9,10.9,0,0,0,30,31c.3,0,.61,0,.92,0a11,11,0,0,0,6.22-19.34Zm-.26,14.21A9,9,0,0,1,21,20.73c0-.1,0-.2,0-.3,1.59.72,4.35,1.22,8.48-.45a24.8,24.8,0,0,0,3.07-1.52,7.52,7.52,0,0,0,6.1,3.93A9,9,0,0,1,36.86,25.83ZM39,20.43a5.41,5.41,0,0,1-5-3.7,1,1,0,0,0-.61-.67,1,1,0,0,0-.9.09c-6.86,4.37-10.29,2.83-11.33,2.1A9,9,0,0,1,29.27,11L30,11a8.93,8.93,0,0,1,9,9.43Z"/>
    <path d="M82.63,31.77a.88.88,0,0,0-.12-.15l-.07-.09a1.21,1.21,0,0,0-.3-.2h0a.92.92,0,0,0-.33-.06h-5a1,1,0,0,0-1,1,4,4,0,0,1-8,0,1,1,0,0,0-1-1h-5a.83.83,0,0,0-.32.06h0a1,1,0,0,0-.29.2l-.08.09a.83.83,0,0,0-.11.15L50.88,50l-10-18.19a.88.88,0,0,0-.12-.15l-.07-.09a1.21,1.21,0,0,0-.3-.2h0a1,1,0,0,0-.34-.06H35a1,1,0,0,0-1,1,4,4,0,0,1-8,0,1,1,0,0,0-1-1H20a.88.88,0,0,0-.33.06h0a1.21,1.21,0,0,0-.3.2l-.07.09a.88.88,0,0,0-.12.15L5.88,55.87a1,1,0,0,0,.26,1.27l3.25,2.51a1,1,0,0,0,1.37-.14L19,49.87v9s0,0,0,0l2,31.14A1,1,0,0,0,22,91h5.68a1,1,0,0,0,1-.88L30,78.67l1.33,11.45a1,1,0,0,0,1,.88H38a1,1,0,0,0,1-.94l2-31.14s0,0,0,0v-9l8.24,9.64a1,1,0,0,0,1.37.14l.27-.21.26.21a1,1,0,0,0,1.37-.14l8.24-9.64v5L56.61,69.73a1,1,0,0,0,.61,1.21,35.89,35.89,0,0,0,4.34,1.18l1.19,17.95a1,1,0,0,0,1,.93h5.68a1,1,0,0,0,1-.88l1.33-11.45,1.33,11.45a1,1,0,0,0,1,.88h5.68a1,1,0,0,0,1-.93L82,72.12a36,36,0,0,0,4.33-1.18,1,1,0,0,0,.61-1.21L82.75,54.87v-5L91,59.51a1,1,0,0,0,.76.35,1,1,0,0,0,.61-.21l3.25-2.51a1,1,0,0,0,.27-1.27ZM19,46.8,9.86,57.49,8,56.08,19,36.15ZM29,69.94,26.79,89H22.94L21.07,59.86H29ZM37.06,89H33.21L31,69.94V59.86h7.93ZM39,47.17V57.86H21V33.25h3.06a6,6,0,0,0,11.86,0H39Zm23.75,0V33.25h3.06a6,6,0,0,0,11.86,0h3.08V54h-18ZM48.07,55.06,41,46.8V36.15L49.73,52Zm5.61,0-.69.82-1.38,1.61-.73-.57-1.09-.84,1.09-2,.57-1L52,52l8.73-15.89V46.8ZM68.54,89H64.69l-1.1-16.5a48.22,48.22,0,0,0,6.79.66Zm10.28,0H75L73.13,73.16a48.37,48.37,0,0,0,6.79-.66Zm5.89-19.65c-.6.18-1.49.43-2.63.69l-1,.21-1,.19a46.89,46.89,0,0,1-7.16.73H70.61a47.16,47.16,0,0,1-7.16-.73l-1-.19c-.36-.07-.7-.14-1-.22-1.14-.25-2-.5-2.63-.68l2.08-7.48.3-1.08.5-1.77.08-.3L62.51,56H81l.76,2.73.08.29.5,1.78.3,1.08Zm7.18-11.86L82.75,46.8V36.15l11,19.93Z"/>
    <text x="0"
        y="115"
        fill="#000000"
        font-size="5px"
        font-weight="bold"
        font-family="'Helvetica Neue', Helvetica, Arial-Unicode, Arial, Sans-serif"></text>
    <text x="0"
        y="120"
        fill="#000000"
        font-size="5px"
        font-weight="bold"
        font-family="'Helvetica Neue', Helvetica, Arial-Unicode, Arial, Sans-serif"></text>
</svg>