<svg xmlns="http://www.w3.org/2000/svg"
    xmlns:xlink="http://www.w3.org/1999/xlink"
    version="1.1"
    x="0px"
    y="0px"
    viewBox="206 206 100 125"
    enable-background="new 206 206 100 100"
    xml:space="preserve"
    fill="#EB5E55">
    <g>
        <path d="M274.517,252.54c-0.534,0-0.969,0.433-0.969,0.968v2.008c-0.261,2.677-5.143,7.838-7.01,9.609   c-0.015,0.014-0.028,0.026-0.041,0.041l-2.638,2.813c-0.227-0.036-0.457-0.055-0.692-0.055l-23.994,0.136   c-0.161,0.001-0.318,0.013-0.476,0.03c-1.009-0.996-1.646-2.495-1.612-3.864l0.159-8.723l0.082-14.259v-0.076l0.006-0.643   c0-0.001,0-0.004,0-0.007l0.048-1.928c0.019-0.756,0.326-1.455,0.865-1.968c0.516-0.49,1.188-0.75,1.884-0.731   c1.48,0.039,2.653,1.312,2.615,2.839c0,0.008,0,0.017,0,0.025l0.001,2.378v0.001l0,0v0.11c0,0.534,0.434,0.967,0.968,0.967   c0,0,0,0,0,0c0.535,0,0.968-0.434,0.968-0.969v-0.102l0.007-0.729c0-0.001,0-0.004,0-0.007l0.05-1.965   c0.019-0.758,0.333-1.464,0.883-1.988c0.55-0.523,1.27-0.803,2.028-0.782c0.759,0.019,1.465,0.333,1.989,0.883   c0.522,0.55,0.8,1.271,0.781,2.029c0,0.008,0,0.017,0,0.025l0.001,2.519v0.008c0,0,0,0,0,0.001v0.011   c0,0.029,0.005,0.056,0.008,0.085c0.003,0.035,0.004,0.07,0.011,0.104c0.006,0.035,0.02,0.067,0.03,0.101   c0.008,0.027,0.014,0.054,0.024,0.08c0.016,0.039,0.038,0.074,0.058,0.109c0.011,0.018,0.019,0.038,0.03,0.055   c0.026,0.039,0.057,0.074,0.088,0.109c0.01,0.011,0.018,0.024,0.028,0.035c0.037,0.036,0.077,0.069,0.119,0.1   c0.008,0.005,0.015,0.013,0.023,0.019c0.046,0.032,0.096,0.059,0.147,0.082c0.005,0.002,0.01,0.006,0.015,0.008   c0.056,0.024,0.115,0.043,0.176,0.057c0.002,0,0.003,0.001,0.004,0.001c0.066,0.014,0.134,0.022,0.205,0.022h0   c0.394,0,0.732-0.237,0.883-0.576c0.001-0.003,0.004-0.006,0.005-0.01c0.02-0.045,0.033-0.093,0.045-0.142   c0.003-0.014,0.009-0.026,0.012-0.04c0.008-0.042,0.011-0.084,0.014-0.127c0.002-0.022,0.007-0.043,0.007-0.065v-0.008   c0,0,0-0.001,0-0.002v-0.018l0.007-0.715c0-0.001,0-0.004,0-0.007l0.05-1.965c0.019-0.758,0.333-1.464,0.883-1.988   c0.55-0.523,1.27-0.803,2.029-0.782c1.566,0.04,2.809,1.346,2.77,2.912c-0.001,0.008-0.001,0.016-0.001,0.024l0.001,2.46v0.067   c0,0.002,0,0.005,0,0.008v0.003c0,0.009,0.003,0.018,0.003,0.027c0.002,0.057,0.007,0.112,0.017,0.166   c0.004,0.016,0.011,0.03,0.015,0.045c0.011,0.046,0.023,0.092,0.042,0.135c0.008,0.021,0.021,0.04,0.032,0.061   c0.017,0.035,0.033,0.071,0.055,0.103c0.017,0.025,0.037,0.046,0.057,0.069c0.02,0.025,0.038,0.051,0.06,0.074   c0.026,0.025,0.055,0.046,0.083,0.069c0.021,0.016,0.039,0.035,0.06,0.049c0.034,0.023,0.072,0.042,0.11,0.061   c0.018,0.009,0.034,0.021,0.053,0.029c0.044,0.019,0.092,0.032,0.14,0.044c0.014,0.004,0.025,0.01,0.04,0.013   c0.055,0.012,0.11,0.016,0.168,0.019c0.008,0,0.017,0.003,0.024,0.003c0.001,0,0.002,0,0.003,0c0.003,0,0.005,0.001,0.009,0.001   l0,0c0.464,0,0.851-0.327,0.945-0.763c0,0,0-0.001,0-0.002c0.013-0.055,0.018-0.112,0.02-0.169c0-0.008,0.002-0.016,0.002-0.024   v-0.001c0-0.002,0.001-0.005,0.001-0.007v-0.058l0.008-0.674c0-0.001,0-0.004,0-0.008l0.05-1.965   c0.02-0.758,0.333-1.464,0.883-1.988c0.551-0.523,1.272-0.803,2.029-0.782c0.759,0.019,1.465,0.333,1.988,0.883   c0.522,0.55,0.801,1.271,0.781,2.029c0,0.008,0,0.017,0,0.024l0.001,2.538l-0.019,18.227c-0.001,0.535,0.432,0.969,0.967,0.97l0,0   c0.535,0,0.969-0.433,0.969-0.967l0.019-18.229c0,0,0,0,0,0c0,0,0,0,0,0l-0.001-2.526c0.028-1.271-0.438-2.478-1.313-3.399   c-0.879-0.925-2.066-1.453-3.342-1.485c-1.283-0.031-2.488,0.435-3.413,1.314c-0.201,0.193-0.385,0.401-0.548,0.621   c-0.846-1.141-2.189-1.896-3.716-1.935c-1.274-0.033-2.487,0.434-3.412,1.314c-0.202,0.192-0.384,0.399-0.546,0.619   c-0.116-0.156-0.24-0.306-0.376-0.448c-0.879-0.925-2.066-1.452-3.343-1.484c-1.273-0.033-2.486,0.435-3.412,1.314   c-0.226,0.214-0.427,0.448-0.604,0.695c-0.822-1.058-2.081-1.751-3.505-1.788c-1.218-0.033-2.378,0.417-3.269,1.264   c-0.914,0.87-1.435,2.05-1.466,3.322l-0.049,1.939c0,0.005,0,0.021,0,0.026l-0.006,0.637c0,0,0,0,0,0.001v0.03l-0.001,0.06   c0,0,0,0.001,0,0.002l-0.082,14.244l-0.158,8.704c-0.041,1.613,0.564,3.307,1.596,4.619c-0.244,0.164-0.474,0.353-0.685,0.566   c-0.829,0.838-1.281,1.948-1.274,3.126c0.012,2.094,1.497,3.849,3.463,4.282v18.818c0,0.535,0.434,0.968,0.968,0.968h23.688   c0.534,0,0.967-0.433,0.967-0.968v-18.908c2.107-0.341,3.716-2.179,3.703-4.379c-0.009-1.448-0.722-2.733-1.811-3.532l2.125-2.267   c0.839-0.798,7.273-7.028,7.591-10.873c0.002-0.026,0.003-0.053,0.003-0.079v-2.051C275.484,252.973,275.051,252.54,274.517,252.54   z M261.938,294.629h-21.752v-17.752l21.752-0.123V294.629z M263.18,274.809l-23.967,0.137h-0.015c-1.357,0-2.467-1.104-2.475-2.462   c-0.004-0.66,0.25-1.282,0.714-1.753c0.465-0.47,1.085-0.731,1.747-0.735l23.983-0.136c1.356,0,2.465,1.104,2.474,2.461   C265.648,273.685,264.544,274.802,263.18,274.809z"/>
        <path d="M301.042,242.759c0-0.535-0.433-0.968-0.968-0.968h-2.932c-0.143-0.305-0.33-0.584-0.563-0.817   c-0.467-0.467-1.068-0.724-1.693-0.724c-0.974,0-1.821,0.624-2.256,1.541h-22.908c-0.535,0-0.968,0.433-0.968,0.968   s0.433,0.968,0.968,0.968h22.6l0.001,6.104H269.71c-0.534,0-0.967,0.433-0.967,0.968s0.433,0.968,0.967,0.968h22.919   c0.102,0.219,0.227,0.424,0.377,0.609c0.482,0.593,1.168,0.934,1.88,0.934c0.001,0,0.002,0,0.002,0   c0.975,0,1.822-0.625,2.255-1.542h2.932c0.258,0,0.503-0.102,0.685-0.283c0.182-0.182,0.284-0.428,0.284-0.685L301.042,242.759z    M295.515,250.377c0,0.072-0.005,0.143-0.016,0.21c-0.002,0.01-0.005,0.02-0.006,0.029c-0.076,0.445-0.353,0.757-0.605,0.757v0.968   l-0.002-0.968c-0.174,0-0.311-0.137-0.377-0.218c-0.159-0.196-0.251-0.479-0.251-0.778v-7.195c0-0.57,0.332-0.996,0.628-0.996   c0.139,0,0.252,0.084,0.324,0.156c0.14,0.14,0.237,0.344,0.28,0.572c0.003,0.019,0.004,0.038,0.008,0.056   c0.011,0.068,0.017,0.138,0.017,0.209V250.377L295.515,250.377z M297.451,249.831v-6.104h1.655v6.104H297.451z"/>
        <path d="M233.359,241.79h-15.058c-0.03,0-0.058,0.006-0.087,0.009c-0.028,0.002-0.057,0.003-0.084,0.008   c-0.041,0.007-0.078,0.02-0.116,0.031c-0.022,0.007-0.044,0.012-0.065,0.02c-0.045,0.018-0.086,0.04-0.126,0.063   c-0.012,0.007-0.025,0.011-0.038,0.019l-0.019,0.012c-0.003,0.001-0.006,0.003-0.009,0.005l-6.339,4.003   c-0.005,0.003-0.01,0.008-0.016,0.012c-0.03,0.02-0.056,0.043-0.084,0.066c-0.023,0.019-0.046,0.036-0.067,0.057   c-0.02,0.021-0.038,0.043-0.056,0.065c-0.023,0.028-0.047,0.056-0.067,0.085c-0.003,0.006-0.009,0.01-0.012,0.016   c-0.011,0.019-0.018,0.038-0.028,0.056c-0.017,0.032-0.034,0.063-0.048,0.096c-0.012,0.029-0.02,0.059-0.029,0.088   c-0.009,0.03-0.018,0.06-0.024,0.091c-0.006,0.031-0.009,0.063-0.012,0.094c-0.003,0.031-0.006,0.061-0.006,0.092   c0,0.03,0.003,0.061,0.006,0.091c0.003,0.032,0.006,0.063,0.012,0.095c0.006,0.03,0.015,0.06,0.024,0.089s0.017,0.06,0.029,0.089   c0.014,0.033,0.031,0.063,0.047,0.095c0.011,0.019,0.017,0.039,0.029,0.057c0.005,0.007,0.011,0.014,0.016,0.021   c0.008,0.012,0.017,0.023,0.025,0.035c0.029,0.04,0.06,0.077,0.095,0.111c0.006,0.006,0.011,0.013,0.017,0.018   c0.042,0.041,0.088,0.076,0.137,0.107c0.004,0.003,0.008,0.007,0.012,0.01l6.366,4.021c0.044,0.027,0.089,0.05,0.135,0.07   c0.007,0.002,0.015,0.004,0.021,0.008c0.048,0.019,0.098,0.034,0.147,0.045c0.012,0.002,0.024,0.005,0.036,0.008   c0.059,0.011,0.118,0.019,0.177,0.019c0.003,0,0.007,0,0.011,0h14.994c0.535,0,0.968-0.433,0.968-0.968   c0-0.535-0.433-0.968-0.968-0.968h-14.036v-6.104h14.09c0.535,0,0.968-0.434,0.968-0.968S233.894,241.79,233.359,241.79z    M217.333,249.042l-3.585-2.264l3.585-2.263V249.042z"/>
        <path d="M233.333,245.619h-11.661c-0.535,0-0.968,0.433-0.968,0.968s0.433,0.968,0.968,0.968h11.661   c0.535,0,0.968-0.433,0.968-0.968S233.868,245.619,233.333,245.619z"/>
        <path d="M269.717,247.554h20.552c0.534,0,0.967-0.433,0.967-0.968s-0.433-0.968-0.967-0.968h-20.552   c-0.534,0-0.967,0.433-0.967,0.968S269.183,247.554,269.717,247.554z"/>
        <path d="M251.392,222.065c0.535,0,0.968-0.434,0.968-0.968v-4.693c0-0.534-0.433-0.968-0.968-0.968s-0.968,0.434-0.968,0.968v4.693   C250.424,221.631,250.857,222.065,251.392,222.065z"/>
        <path d="M238.303,224.863c0.179,0.311,0.504,0.484,0.839,0.484c0.164,0,0.331-0.042,0.483-0.13   c0.462-0.268,0.622-0.859,0.354-1.323l-2.347-4.064c-0.267-0.463-0.859-0.621-1.322-0.354c-0.463,0.267-0.622,0.859-0.354,1.322   L238.303,224.863z"/>
        <path d="M225.624,231.839l4.065,2.347c0.153,0.088,0.319,0.13,0.483,0.13c0.335,0,0.66-0.174,0.839-0.484   c0.267-0.463,0.109-1.055-0.354-1.323l-4.064-2.347c-0.463-0.267-1.055-0.108-1.322,0.355   C225.003,230.979,225.161,231.572,225.624,231.839z"/>
        <path d="M272.61,234.315c0.165,0,0.331-0.042,0.483-0.13l4.065-2.347c0.463-0.267,0.622-0.859,0.354-1.322   c-0.267-0.463-0.859-0.623-1.322-0.355l-4.064,2.347c-0.464,0.267-0.622,0.859-0.354,1.322   C271.95,234.141,272.276,234.315,272.61,234.315z"/>
        <path d="M263.157,225.218c0.153,0.088,0.318,0.129,0.483,0.129c0.335,0,0.659-0.173,0.84-0.484l2.348-4.064   c0.267-0.462,0.108-1.055-0.355-1.322c-0.463-0.268-1.054-0.109-1.321,0.354l-2.348,4.064   C262.536,224.358,262.695,224.95,263.157,225.218z"/>
    </g>
    <text x="206"
        y="321"
        fill="#000000"
        font-size="5px"
        font-weight="bold"
        font-family="'Helvetica Neue', Helvetica, Arial-Unicode, Arial, Sans-serif"></text>
    <text x="206"
        y="326"
        fill="#000000"
        font-size="5px"
        font-weight="bold"
        font-family="'Helvetica Neue', Helvetica, Arial-Unicode, Arial, Sans-serif"></text>
</svg>