<svg xmlns="http://www.w3.org/2000/svg" viewBox="0 0 64 80" x="0px" y="0px"><g><path d="M49.5363,40.9267A4.9977,4.9977,0,0,0,45,38h-.7781a14.3989,14.3989,0,0,0,2.76-8.1362A3.9641,3.9641,0,0,0,49,23.382V19a15.0072,15.0072,0,0,0-8.02-13.266C40.7767,2.4989,36.9119,0,32,0s-8.7767,2.4989-8.98,5.734A15.0072,15.0072,0,0,0,15,19v4.382a3.9641,3.9641,0,0,0,2.0184,6.4818A14.3989,14.3989,0,0,0,19.7781,38H19a4.9977,4.9977,0,0,0-4.5363,2.9267A16.9737,16.9737,0,0,0,7,55v8a1,1,0,0,0,1,1H56a1,1,0,0,0,1-1V55A16.9737,16.9737,0,0,0,49.5363,40.9267ZM48,43v7H45V40A3.0033,3.0033,0,0,1,48,43ZM21,50V40.3c.2421-.0492.4833-.0888.7223-.1242a14.5811,14.5811,0,0,0,1.2909,1.056C23.153,45.5352,27.1251,49,32,49s8.847-3.4648,8.9868-7.7682a14.6043,14.6043,0,0,0,1.29-1.0555c.2392.0353.48.0751.7228.1244V50Zm4.25-7.4365A14.3861,14.3861,0,0,0,31.5,44h1a14.3862,14.3862,0,0,0,6.2505-1.4366A6.914,6.914,0,0,1,32,47,6.914,6.914,0,0,1,25.25,42.5635ZM47,27.7217V26.5a14.4645,14.4645,0,0,0-.2056-2.3334A1.99,1.99,0,0,1,47,27.7217ZM32,2c3.0241,0,5.669,1.1654,6.62,2.7357A14.93,14.93,0,0,0,34,4H30a14.93,14.93,0,0,0-4.62.7357C26.331,3.1654,28.9759,2,32,2ZM30,6h4A13.015,13.015,0,0,1,47,19v3.142a3.96,3.96,0,0,0-.7131-.113A14.5206,14.5206,0,0,0,32.5,12h-1A14.5206,14.5206,0,0,0,17.7131,22.029,3.96,3.96,0,0,0,17,22.142V19A13.015,13.015,0,0,1,30,6ZM16,26a2.002,2.002,0,0,1,1.2056-1.8334A14.4645,14.4645,0,0,0,17,26.5v1.2217A1.9938,1.9938,0,0,1,16,26Zm3,.5A12.5141,12.5141,0,0,1,31.5,14h1A12.5141,12.5141,0,0,1,45,26.5v3A12.5141,12.5141,0,0,1,32.5,42h-1A12.5141,12.5141,0,0,1,19,29.5ZM19,40V50H16V43a2.9793,2.9793,0,0,1,.2244-1.1291l.0022-.0067A3.0018,3.0018,0,0,1,19,40ZM9,55a14.9656,14.9656,0,0,1,5-11.1788V50a1,1,0,0,0-1,1V62H9Zm6,7V52H49V62Zm40,0H51V51a1,1,0,0,0-1-1V43.8221A14.9645,14.9645,0,0,1,55,55Z"/><circle cx="25" cy="24" r="2"/><circle cx="38.9724" cy="24" r="2"/><path d="M29,36h.8252a7.0888,7.0888,0,0,0,6.0264-3.4756,1,1,0,1,0-1.7032-1.0488A5.1016,5.1016,0,0,1,29.8252,34H29a1,1,0,0,0,0,2Z"/></g><text x="0" y="79" fill="#000000" font-size="5px" font-weight="bold" font-family="'Helvetica Neue', Helvetica, Arial-Unicode, Arial, Sans-serif">Created by fausan mayeh</text><text x="0" y="84" fill="#000000" font-size="5px" font-weight="bold" font-family="'Helvetica Neue', Helvetica, Arial-Unicode, Arial, Sans-serif">from the Noun Project</text></svg>