<svg xmlns="http://www.w3.org/2000/svg"
    xmlns:xlink="http://www.w3.org/1999/xlink"
    viewBox="0 0 96 120"
    version="1.1"
    x="0px"
    y="0px"
    fill="#4BD1BE">
    <title>Artboard</title>
    <desc>Created with Sketch.</desc>
    <g stroke="none" stroke-width="1" fill="none" fill-rule="evenodd">
        <g fill="#4BD1BE">
            <path d="M27,24.9472656 L27,17 C27,15.6192881 25.8807119,14.5 24.5,14.5 C23.1192881,14.5 22,15.6192881 22,17 L22,25.1728516 M22,42.1630859 L22,79 L22,79 C22,80.3807119 23.1192881,81.5 24.5,81.5 C25.8807119,81.5 27,80.3807119 27,79 L27,42.0947266"/>
            <path d="M35.9545455,33.46875 C35.9545455,27.2722584 30.9273777,22.25 24.7272727,22.25 C18.5271677,22.25 13.5,27.2722584 13.5,33.46875 C13.5,39.6652416 18.5271677,44.6875 24.7272727,44.6875 C30.9273777,44.6875 35.9545455,39.6652416 35.9545455,33.46875 Z M18.5,33.46875 C18.5,30.0347763 21.2874985,27.25 24.7272727,27.25 C28.167047,27.25 30.9545455,30.0347763 30.9545455,33.46875 C30.9545455,36.9027237 28.167047,39.6875 24.7272727,39.6875 C21.2874985,39.6875 18.5,36.9027237 18.5,33.46875 Z"/>
            <path d="M74,24.9472656 L74,17 C74,15.6192881 72.8807119,14.5 71.5,14.5 C70.1192881,14.5 69,15.6192881 69,17 L69,25.1728516 M69,42.1630859 L69,79 L69,79 C69,80.3807119 70.1192881,81.5 71.5,81.5 C72.8807119,81.5 74,80.3807119 74,79 L74,42.0947266"/>
            <path d="M82.9545455,33.46875 C82.9545455,27.2722584 77.9273777,22.25 71.7272727,22.25 C65.5271677,22.25 60.5,27.2722584 60.5,33.46875 C60.5,39.6652416 65.5271677,44.6875 71.7272727,44.6875 C77.9273777,44.6875 82.9545455,39.6652416 82.9545455,33.46875 Z M65.5,33.46875 C65.5,30.0347763 68.2874985,27.25 71.7272727,27.25 C75.167047,27.25 77.9545455,30.0347763 77.9545455,33.46875 C77.9545455,36.9027237 75.167047,39.6875 71.7272727,39.6875 C68.2874985,39.6875 65.5,36.9027237 65.5,33.46875 Z"/>
            <path d="M51,24.9472656 L51,17 C51,15.6192881 49.8807119,14.5 48.5,14.5 C47.1192881,14.5 46,15.6192881 46,17 L46,25.1728516 M46,42.1630859 L46,79 L46,79 C46,80.3807119 47.1192881,81.5 48.5,81.5 C49.8807119,81.5 51,80.3807119 51,79 L51,42.0947266" transform="translate(48.500000, 48.000000) rotate(-180.000000) translate(-48.500000, -48.000000) "/>
            <path d="M59.5,62.53125 C59.5,56.3347584 54.4728323,51.3125 48.2727273,51.3125 C42.0726223,51.3125 37.0454545,56.3347584 37.0454545,62.53125 C37.0454545,68.7277416 42.0726223,73.75 48.2727273,73.75 C54.4728323,73.75 59.5,68.7277416 59.5,62.53125 Z M42.0454545,62.53125 C42.0454545,59.0972763 44.832953,56.3125 48.2727273,56.3125 C51.7125015,56.3125 54.5,59.0972763 54.5,62.53125 C54.5,65.9652237 51.7125015,68.75 48.2727273,68.75 C44.832953,68.75 42.0454545,65.9652237 42.0454545,62.53125 Z" transform="translate(48.272727, 62.531250) rotate(-180.000000) translate(-48.272727, -62.531250) "/>
        </g>
    </g>
    <text x="0"
        y="111"
        fill="#000000"
        font-size="5px"
        font-weight="bold"
        font-family="'Helvetica Neue', Helvetica, Arial-Unicode, Arial, Sans-serif"></text>
    <text x="0"
        y="116"
        fill="#000000"
        font-size="5px"
        font-weight="bold"
        font-family="'Helvetica Neue', Helvetica, Arial-Unicode, Arial, Sans-serif"></text>
</svg>