<svg xmlns="http://www.w3.org/2000/svg"
    xmlns:xlink="http://www.w3.org/1999/xlink"
    version="1.1"
    x="0px"
    y="0px"
    viewBox="0 0 100 125"
    style="enable-background:new 0 0 100 100;"
    xml:space="preserve"
    fill="#EB5E55">
    <g>
        <g>
            <path d="M31.5,20.8c-1.2,0-2.4-0.2-3.5-0.6c-2.6-0.9-4.7-2.8-5.9-5.4c-1.2-2.5-1.3-5.3-0.4-7.9    C22.6,4.2,24.5,2.2,27,1c5.2-2.4,11.4-0.2,13.8,5l0,0c1.2,2.5,1.3,5.3,0.4,7.9c-0.9,2.6-2.8,4.7-5.4,5.9    C34.5,20.5,33,20.8,31.5,20.8z M31.4,2.5c-1.1,0-2.3,0.2-3.3,0.7c-1.9,0.9-3.3,2.5-4.1,4.5c-0.7,2-0.6,4.1,0.3,6    c0.9,1.9,2.5,3.3,4.5,4.1c2,0.7,4.1,0.6,6-0.3c1.9-0.9,3.3-2.5,4.1-4.5c0.7-2,0.6-4.1-0.3-6l0,0C37.2,4.2,34.4,2.5,31.4,2.5z"/>
        </g>
        <g>
            <path d="M67.4,67"/>
        </g>
        <g>
            <path d="M41,100C22.2,100,6.9,84.7,6.9,65.8c0-11.3,5.6-21.9,15-28.3c0.6-0.4,1.4-0.2,1.8,0.3    c0.4,0.6,0.2,1.4-0.3,1.8C14.6,45.5,9.4,55.3,9.4,65.8c0,17.4,14.2,31.6,31.6,31.6c10,0,19.5-4.8,25.5-12.8    c0.4-0.6,1.2-0.7,1.8-0.3c0.6,0.4,0.7,1.2,0.3,1.8C62.1,94.8,51.8,100,41,100z"/>
        </g>
        <g>
            <path d="M86.5,100c-0.5,0-0.9,0-1.4-0.1c-1.7-0.4-3.2-1.4-4.2-2.9L65.9,73.7l-13.9,0c-10.1,0-14.8-3.6-17.4-13.4    l-0.4-1.6l32.7,0c3.4,0,6.6,1.7,8.4,4.5l0.1,0.1l16.7,26.5c1.9,3,1,7.1-1.9,9.1C89.1,99.6,87.8,100,86.5,100z M37.5,61.2    c2.3,7.5,6.1,9.9,14.5,9.9l15.3,0l15.8,24.4c0.6,0.9,1.5,1.6,2.6,1.8c1.1,0.2,2.2,0,3.1-0.6l0,0c1.8-1.2,2.4-3.7,1.2-5.6    L73.2,64.7c-1.4-2.1-3.8-3.4-6.3-3.4L37.5,61.2z"/>
        </g>
        <g>
            <path d="M35.8,61.2c-0.6,0-1.1-0.4-1.2-0.9l-7.4-27.4c-1-3.8,1.3-7.7,5.1-8.7l4.8-1.2c1.8-0.5,3.8-0.2,5.4,0.8    c1.6,1,2.8,2.5,3.3,4.4l1.6,5.9c0.6,2.1,2.5,3.6,4.7,3.6h13.5c2.4,0,4.4,2,4.4,4.4v4.4H58.1c-0.7,0-1.3-0.6-1.3-1.3    s0.6-1.3,1.3-1.3h9.3v-1.9c0-1-0.8-1.9-1.9-1.9H52.1c-3.3,0-6.3-2.2-7.1-5.5l-1.6-5.9c-0.3-1.2-1.1-2.2-2.1-2.8    c-1.1-0.6-2.3-0.8-3.5-0.5L33,26.7c-2.5,0.6-3.9,3.1-3.3,5.6L37,59.6c0.2,0.7-0.2,1.4-0.9,1.5C36,61.2,35.9,61.2,35.8,61.2z"/>
        </g>
        <g>
            <path d="M52.4,61.2c-0.6,0-1.1-0.4-1.2-0.9l-3.3-12.4c-0.2-0.7,0.2-1.4,0.9-1.5c0.7-0.2,1.4,0.2,1.5,0.9l3.3,12.4    c0.2,0.7-0.2,1.4-0.9,1.5C52.6,61.2,52.5,61.2,52.4,61.2z"/>
        </g>
    </g>
    <text x="0"
        y="115"
        fill="#000000"
        font-size="5px"
        font-weight="bold"
        font-family="'Helvetica Neue', Helvetica, Arial-Unicode, Arial, Sans-serif"></text>
    <text x="0"
        y="120"
        fill="#000000"
        font-size="5px"
        font-weight="bold"
        font-family="'Helvetica Neue', Helvetica, Arial-Unicode, Arial, Sans-serif"></text>
</svg>