<svg xmlns="http://www.w3.org/2000/svg"
    xmlns:xlink="http://www.w3.org/1999/xlink"
    version="1.1"
    x="0px"
    y="0px"
    viewBox="0 0 101 126.25"
    style="enable-background:new 0 0 101 101;"
    xml:space="preserve"
    fill="#EB5E55">
    <g>
        <path d="M95.284,43.137c-0.119-1.483-1.154-2.445-2.637-2.449c-1.479-0.019-3.156,0.271-4.502,0.577L81.1,41.242l0.006-1.748   l8.174,0.026c0.001,0,0.001,0,0.002,0c0.132,0,0.258-0.052,0.352-0.145c0.094-0.093,0.146-0.22,0.147-0.353l0.022-7.088   c0.001-0.275-0.222-0.5-0.497-0.5l-78.474-0.253c-0.262-0.01-0.5,0.221-0.501,0.497l-0.023,7.088c0,0.132,0.052,0.259,0.146,0.353   c0.093,0.094,0.22,0.147,0.352,0.147l7.319,0.024l-0.006,1.748L10.8,41.015c-0.001,0-0.001,0-0.002,0   c-0.132,0-0.258,0.052-0.352,0.145c-0.094,0.093-0.146,0.22-0.147,0.353L10.276,48.6c-0.001,0.275,0.222,0.5,0.497,0.5l7.319,0.024   l-0.008,2.343L6.214,51.428c-0.001,0-0.001,0-0.002,0c-0.274,0-0.498,0.222-0.499,0.497l-0.008,2.397   c0,0.132,0.052,0.259,0.146,0.353c0.093,0.094,0.22,0.147,0.352,0.147l7.722,0.025l-0.048,14.74l1.33,0.004l1.33,0.004l0.048-14.74   l29.46,0.095l6.198,1.848c0.047,0.014,0.095,0.021,0.143,0.021c0.174,0,0.34-0.092,0.431-0.248l0.928-1.596l13.326,0.043   c1.086,0.206,2.042,0.353,2.746,0.403c0.141,0.01,0.29,0.015,0.449,0.015c0.905,0,2.114-0.157,3.44-0.396l8.838,0.029l-0.048,14.74   l1.33,0.004l1.33,0.004l0.048-14.741l7.357,0.024c0.001,0,0.001,0,0.002,0c0.274,0,0.498-0.222,0.499-0.497l0.008-2.397   c0-0.132-0.052-0.259-0.146-0.353c-0.093-0.094-0.22-0.147-0.352-0.147l-6.57-0.021c1.513-0.136,3.969-0.372,5.387-0.586   c0.699-0.105,1.233-0.544,1.506-1.236c0.378-0.965,0.173-2.228-0.499-3.07c-0.053-0.067-0.119-0.113-0.176-0.173   c0.25-0.04,0.491-0.079,0.711-0.115C94.552,46.237,95.4,44.582,95.284,43.137z M91.967,49.5c-0.14,0.356-0.384,0.562-0.726,0.614   c-1.646,0.248-4.826,0.536-6.089,0.646l0.009-2.676c0.605-0.047,1.003-0.078,1.086-0.084c0.132-0.01,0.255-0.073,0.341-0.174   c0.046-0.054,0.077-0.118,0.096-0.185c1.079-0.25,2.454-0.544,3.667-0.727c0.517-0.077,0.939,0.092,1.266,0.502   C92.063,47.975,92.213,48.871,91.967,49.5z M69.888,54.427c-3.563-0.249-14.245-3.213-14.353-3.243   c-0.037-0.01-0.073-0.006-0.109-0.008l0.029-0.563c2.738-5.16,0.561-12.501-0.191-14.675c1.473-0.125,5.203-0.312,7.451,0.73   c2.943,1.364,9.537,5.328,9.604,5.368c0.074,0.045,0.158,0.069,0.245,0.071l12.714,0.294l0.39,4.643   c-2.275,0.176-11.599,0.891-13.257,0.891c-0.006,0-0.012,0-0.017,0c-1.456-0.005-7.101-2.11-9.152-2.92   c-0.255-0.101-0.547,0.023-0.647,0.281c-0.102,0.256,0.024,0.546,0.28,0.647c0.773,0.305,7.607,2.983,9.516,2.99   c0.007,0,0.013,0,0.019,0c1.445,0,8.248-0.504,11.753-0.771l-0.01,3.227C82.237,51.961,73.028,54.644,69.888,54.427z M32.894,47.21   l5.648-5.079c0.12-0.108,0.181-0.267,0.162-0.428c-0.018-0.16-0.112-0.302-0.254-0.38l-4.461-2.47   c-0.239-0.131-0.545-0.046-0.678,0.195s-0.046,0.544,0.195,0.678l3.848,2.13l-5.48,4.928c-0.198,0.178-0.222,0.479-0.054,0.686   l2.841,3.496c-2.754,1.029-7.333,1.929-9.326,1.037c-0.434-0.195-0.703-0.457-0.824-0.803c-0.854-2.446,0.29-3.928,0.337-3.988   c0.001-0.001,0.001-0.002,0.001-0.003c0.556,0.059,1.085,0.082,1.546,0.082c0.909,0,1.554-0.078,1.627-0.087   c0.273-0.034,0.467-0.284,0.433-0.557c-0.035-0.274-0.292-0.472-0.558-0.432c-0.046,0.006-4.757,0.575-6.745-1.482   c-0.754-0.78-1.012-1.828-0.79-3.205c0.334-2.072,1.255-3.569,2.737-4.45c2.27-1.351,5.154-0.909,6.502-0.436   c1.185,0.416,1.539,2.185,1.578,3.822c-0.165-0.398-0.408-0.764-0.722-1.078c-0.63-0.631-1.468-0.979-2.359-0.979l-2.841-0.002   c-1.838,0-3.335,1.495-3.336,3.333c-0.001,0.892,0.346,1.73,0.976,2.361c0.63,0.63,1.468,0.978,2.359,0.979l2.838,0.002h0.003   c1.308,0,2.432-0.764,2.978-1.863c0.068,0.143,0.195,0.255,0.363,0.282c0.266,0.044,0.528-0.141,0.571-0.413   c0.03-0.182,0.501-3.257-0.303-5.425l0.096,0l-0.144-0.121c-0.228-0.571-0.553-1.066-1.003-1.423   c1.024-1.183,3.847-1.835,8.091-1.835c0.045,0,0.091,0,0.137,0c0.911,0.003,2.069,0.692,3.178,1.891   c1.751,1.894,2.98,4.575,2.801,6.104c-0.215,1.826-5.864,5.67-9.62,7.822L32.894,47.21z M30.436,41.744   c-0.001,1.289-1.05,2.338-2.338,2.338h-0.003l-2.838-0.002c-0.625,0-1.212-0.244-1.653-0.687c-0.441-0.442-0.685-1.03-0.684-1.655   c0.001-1.289,1.05-2.337,2.341-2.337l2.838,0.002c0.625,0,1.212,0.244,1.654,0.687C30.194,40.532,30.437,41.119,30.436,41.744z    M55.224,39.593l-9.512,3.295c0.065-0.17,0.12-0.337,0.139-0.496c0.225-1.908-1.153-4.622-2.675-6.447l10.325-2.107l1.173,3.559   C54.852,38.006,55.046,38.758,55.224,39.593z M44.866,44.237l10.55-3.655c0.507,2.866,0.678,6.461-0.71,9.311l-13.674-2.324   C42.518,46.499,43.952,45.326,44.866,44.237z M77.813,41.231l-5.093-0.118c-0.354-0.212-1.442-0.863-2.804-1.655l8.53,0.028   l-0.006,1.748L77.813,41.231z M23.209,49.14c-0.037,0.67,0.044,1.457,0.347,2.344l-2.811-0.009l0.008-2.343L23.209,49.14z    M35.879,50.88c0.814-0.47,2.347-1.383,3.99-2.497l14.308,2.432c-0.023,0.036-0.039,0.075-0.064,0.111   c-0.155,0.228-0.097,0.538,0.131,0.693c0.078,0.053,0.166,0.074,0.254,0.079l-2.346,4.034L35.879,50.88z M86.621,46.465   l-0.31-3.686c1.027-0.301,3.949-1.094,6.301-1.094c0.011,0,0.021,0,0.032,0c1.375,0.005,1.609,1.073,1.646,1.532   c0.08,0.996-0.468,2.13-1.521,2.304C91.007,45.813,88.099,46.247,86.621,46.465z"/>
    </g>
    <text x="0"
        y="116"
        fill="#000000"
        font-size="5px"
        font-weight="bold"
        font-family="'Helvetica Neue', Helvetica, Arial-Unicode, Arial, Sans-serif"></text>
    <text x="0"
        y="121"
        fill="#000000"
        font-size="5px"
        font-weight="bold"
        font-family="'Helvetica Neue', Helvetica, Arial-Unicode, Arial, Sans-serif"></text>
</svg>