<svg xmlns="http://www.w3.org/2000/svg"
  xmlns:xlink="http://www.w3.org/1999/xlink"
  xml:space="preserve"
  version="1.1"
  style="shape-rendering:geometricPrecision;text-rendering:geometricPrecision;image-rendering:optimizeQuality;"
  viewBox="0 0 567 708.75"
  x="0px"
  y="0px"
  fill-rule="evenodd"
  clip-rule="evenodd"
  fill="#64E3D1">
  <defs>
    <style type="text/css" fill="#64E3D1">
    </style>
  </defs>
  <g>
    <path class="fil0" d="M284 106c59,0 107,49 107,108 0,59 -48,107 -107,107 -59,0 -108,-48 -108,-107 0,-59 49,-108 108,-108zm0 34c-41,0 -74,33 -74,74 0,40 33,73 74,73 40,0 73,-33 73,-73 0,-41 -33,-74 -73,-74z"/>
    <path class="fil0" d="M284 0c156,0 283,127 283,284 0,156 -127,283 -283,283 -157,0 -284,-127 -284,-283 0,-157 127,-284 284,-284zm0 330c82,0 152,58 169,137 50,-45 81,-111 81,-183 0,-138 -112,-250 -250,-250 -138,0 -250,112 -250,250 0,72 31,138 80,183 17,-79 87,-137 170,-137zm139 161c0,0 0,-1 0,-1 -7,-71 -68,-126 -139,-126 -72,0 -132,55 -139,126 0,0 0,1 0,1 39,27 87,43 139,43 51,0 99,-16 139,-43z"/>
  </g>
  <text x="0"
    y="582"
    fill="#000000"
    font-size="5px"
    font-weight="bold"
    font-family="'Helvetica Neue', Helvetica, Arial-Unicode, Arial, Sans-serif"></text>
  <text x="0"
    y="587"
    fill="#000000"
    font-size="5px"
    font-weight="bold"
    font-family="'Helvetica Neue', Helvetica, Arial-Unicode, Arial, Sans-serif"></text>
</svg>